# xmcd
#
# Track frame offsets:
#	180
#	32200
#	44447
#	56533
#	69425
#	82824
#	96400
#	105921
#	112456
#	120206
#	128522
#	136622
#
# Disc length: 2097 seconds
#
# Revision: 2
# Processed by: cddbd v1.5.2PL0 Copyright (c) Steve Scherf et al.
# Submitted via: EZCDAudioConverter 1.3.4.1
#
DISCID=96082f0c
DTITLE=Tiny Tim - Live In Chicago
DYEAR=1900
DGENRE=
TTITLE0=Are You Lonesome Tonight
TTITLE1=When I Grow Old
TTITLE2=Mother
TTITLE3=Tennessee Waltz - Back In The Saddle
TTITLE4=Your Cheating Heart
TTITLE5=Tip Toe Through The Tulips - Lollipop
TTITLE6=Rock Around The Clock
TTITLE7=Tip Toe (Reprise)
TTITLE8=Highway To Hell
TTITLE9=Great Balls Of Fire
TTITLE10=I Believe
TTITLE11=When The Saints Go Marching In
EXTD=
EXTT0=
EXTT1=
EXTT2=
EXTT3=
EXTT4=
EXTT5=
EXTT6=
EXTT7=
EXTT8=
EXTT9=
EXTT10=
EXTT11=
PLAYORDER=
